<?xml version="1.0" standalone="no"?>
<!DOCTYPE svg PUBLIC "-//W3C//DTD SVG 20010904//EN"
 "http://www.w3.org/TR/2001/REC-SVG-20010904/DTD/svg10.dtd">
<svg version="1.0" xmlns="http://www.w3.org/2000/svg"
 width="500.000000pt" height="500.000000pt" viewBox="0 0 500.000000 500.000000"
 preserveAspectRatio="xMidYMid meet">
<metadata>
Created by potrace 1.16, written by Peter Selinger 2001-2019
</metadata>
<g transform="translate(0.000000,500.000000) scale(0.100000,-0.100000)"
fill="#000000" stroke="none">
<path d="M2420 4993 c-569 -23 -1086 -220 -1515 -577 -417 -346 -721 -842
-841 -1370 -31 -137 -64 -419 -64 -546 0 -142 28 -388 60 -535 182 -821 751
-1488 1530 -1795 456 -179 957 -219 1440 -114 943 205 1680 932 1901 1874 34
144 69 425 69 551 0 238 -57 581 -135 814 -282 841 -1005 1477 -1875 1649
-172 34 -419 55 -570 49z m455 -606 c383 -81 716 -261 985 -531 138 -139 161
-193 121 -281 -25 -55 -71 -92 -125 -100 -25 -4 -170 -5 -323 -3 l-278 4 -85
31 c-47 17 -126 49 -177 72 -191 84 -400 119 -596 101 -124 -12 -139 -15 -247
-47 -97 -29 -233 -94 -323 -155 -73 -50 -210 -179 -266 -251 -279 -363 -326
-858 -121 -1262 206 -406 610 -655 1060 -655 304 0 595 113 810 316 l73 69
-29 6 c-16 4 -231 7 -479 8 -485 2 -547 7 -663 54 -269 110 -455 349 -493 633
-20 153 3 295 70 439 112 238 350 411 611 445 99 13 1073 13 1220 0 196 -18
369 -75 494 -164 145 -104 243 -248 287 -426 19 -76 21 -103 16 -265 -9 -287
-65 -513 -192 -772 -232 -478 -669 -850 -1170 -996 -317 -93 -613 -108 -929
-47 -665 129 -1234 628 -1449 1272 -80 238 -115 508 -97 742 48 624 362 1155
890 1500 178 117 456 227 673 265 163 29 163 29 397 26 183 -3 233 -7 335 -28z"/>
</g>
</svg>
